<?xml version="1.0" encoding="utf-8"?>
<!-- Generator: Adobe Illustrator 25.0.0, SVG Export Plug-In . SVG Version: 6.00 Build 0)  -->
<svg version="1.1" id="Layer_1" xmlns="http://www.w3.org/2000/svg" xmlns:xlink="http://www.w3.org/1999/xlink" x="0px" y="0px"
	 viewBox="0 0 2562 822" style="enable-background:new 0 0 2562 822;" xml:space="preserve">
<link rel="stylesheet" href="style.css" />
<style type="text/css">
	.st0{enable-background:new    ;}
	.st1{fill:#4285F4;}
	.st2{fill:#DB4437;}
	.st3{fill:#F4B400;}
	.st4{fill:#0F9D58;}
	.st5{fill:black;}
	@media (prefers-color-scheme: dark) {
		.st5{ fill: white; }
	}
</style>
<g class="st0">
	<path class="st1" d="M342,482.7l40.9,51.3l-46.7,35.7l-29.4-36.9c-26.9,24.6-59.1,36.9-96.8,36.9c-28,0-53.7-6.3-76.9-19
		s-41.6-30-55-52.1s-20.2-46.7-20.2-74c0-23.4,6.1-45.9,18.4-67.4s29-39.4,50.1-53.6c-18.2-23.9-27.4-46-27.4-66.3
		c0-18,4.5-34.7,13.5-49.8c9-15.2,21.4-27.1,37.2-35.7c15.7-8.6,33.2-13,52.4-13c24.6,0,45.1,6.4,61.6,19.3
		c16.5,12.9,28.2,29.5,35.1,49.8l-52.4,27.6c-9.6-26.1-24.2-39.2-43.8-39.2c-11.9,0-21.8,3.7-29.7,10.9
		c-7.9,7.3-11.8,17.1-11.8,29.4c0,11.9,4.6,23.6,13.8,35.1L305.7,437l35.7-58.2l47.2,29.4L342,482.7z M271.8,487.9L161.2,347.3
		c-13.4,8.5-24,19.5-31.7,33.1S118,408.3,118,423.3c0,16.9,4.2,32.2,12.7,45.8c8.4,13.6,19.9,24.2,34.3,31.7
		c14.4,7.5,30,11.2,46.9,11.2C235.7,512,255.6,504,271.8,487.9z"/>
</g>
<g class="st0">
	<path class="st2" d="M467.9,537.7c-18.6-21.3-27.9-51-27.9-89v-182h63.4V440c0,23.8,5.7,41.7,17,53.6
		c11.3,11.9,26.2,17.9,44.6,17.9c15,0,28.2-3.9,39.7-11.8s20.4-18.3,26.5-31.4s9.2-27.1,9.2-42V266.7h63.4v293.8h-59.9v-38h-3.5
		c-8.1,13.8-20.5,25.2-37.4,34s-34.8,13.2-53.6,13.2C513.7,569.7,486.5,559,467.9,537.7z"/>
</g>
<g class="st0">
	<path class="st3" d="M831.1,549.5c-21.5-13.4-38.5-32-51-55.6s-18.7-50.4-18.7-80.4s6.2-56.7,18.7-80.4
		c12.5-23.6,29.5-42.1,51-55.6c21.5-13.4,45.5-20.2,72-20.2c20.7,0,39.4,4.6,55.9,13.8c16.5,9.2,29,20.5,37.4,34h2.9l-2.9-41.5V148
		h63.4v412.4h-60.5v-38h-2.9c-8.5,13.1-20.9,24.2-37.4,33.4s-35.1,13.8-55.9,13.8C876.6,569.7,852.6,562.9,831.1,549.5z
		 M955.2,499.4c13.2-8.1,23.9-19.6,32-34.6s12.1-32.1,12.1-51.3c0-19.2-4-36.2-12.1-51s-18.7-26.2-32-34.3
		c-13.2-8.1-27.6-12.1-42.9-12.1c-15.4,0-29.8,4-43.2,12.1s-24.2,19.5-32.3,34.3s-12.1,31.8-12.1,51s4,36.3,12.1,51.3
		s18.8,26.5,32.3,34.6c13.4,8.1,27.8,12.1,43.2,12.1S942,507.4,955.2,499.4z"/>
</g>
<g>
	<path class="st1" d="M1133.5,266.7h60.5v38.6h2.9c8.8-14.2,21.3-25.7,37.4-34.6c16.1-8.8,33.4-13.2,51.8-13.2
		c21.1,0,39.5,4.9,55.3,14.7c15.7,9.8,27.1,22.8,34,38.9c10-16.1,23.3-29.1,40-38.9s36.4-14.7,59-14.7c33.8,0,59.4,10.3,76.9,30.8
		s26.2,48.5,26.2,83.8v188.4h-63.4V383c0-44.5-19-66.8-57-66.8c-20.4,0-37.1,8.3-50.1,24.8c-13.1,16.5-19.6,36.9-19.6,61.1v158.4
		H1324V383c0-44.5-19.6-66.8-58.8-66.8c-20,0-36.4,8.3-49.3,24.8s-19.3,36.9-19.3,61.1v158.4h-63.4V266.7H1133.5z"/>
</g>
<g class="st0">
	<path class="st3" d="M1649,293.2h264.4v54.7H1649V293.2z M1649,405.5h264.4v54.7H1649V405.5z"/>
</g>
<g class="st0">
	<path class="st4" d="M2073,252.3l-64.5,46.7l-32.3-49l115.8-83.5h44.4v394H2073V252.3z"/>
</g>
<g class="st0">
	<path class="st2" d="M2397.9,482.1h-184.3v-49.5l179.1-266.1h68.5v256.9h50.1v58.8h-50.1v78.3h-63.4L2397.9,482.1L2397.9,482.1z
		 M2397.9,423.3v-163h-3.5l-110,163H2397.9z"/>
</g>
<g class="st5">
	<path d="M428.8,716c-2.2-0.8-4-1.9-5.4-3.2c-3.2-3.2-4.7-7.4-4.7-12.9v-29h-9.8v-10.7h9.8v-15.8h12.1v15.8h13.6v10.7h-13.6v26.4
		c0,3,0.6,5.1,1.8,6.4c1.1,1.5,3,2.2,5.7,2.2c1.2,0,2.3-0.2,3.3-0.5c1-0.3,2-0.9,3.1-1.6v11.8c-2.4,1.1-5.4,1.6-8.8,1.6
		C433.3,717.2,431,716.8,428.8,716z"/>
	<path d="M453.9,637.6H466V659l-0.6,8.6h0.6c1.6-2.6,4-4.8,7.2-6.5c3.2-1.7,6.6-2.6,10.3-2.6c6.8,0,12,2,15.6,6
		c3.6,4,5.4,9.4,5.4,16.3v35.5h-12.1v-33.9c0-4.3-1.1-7.4-3.4-9.6c-2.2-2.1-5.2-3.2-8.7-3.2c-2.7,0-5.2,0.8-7.3,2.3
		c-2.2,1.5-3.9,3.6-5.1,6.1c-1.2,2.5-1.9,5.2-1.9,8.1v30.1h-12.1V637.6z"/>
	<path d="M527.3,714.3c-4.4-2.6-7.8-6.1-10.2-10.6c-2.5-4.5-3.7-9.6-3.7-15.2c0-5.4,1.2-10.3,3.6-14.9c2.4-4.6,5.7-8.2,10-10.9
		c4.3-2.7,9.1-4.1,14.5-4.1c5.6,0,10.5,1.2,14.7,3.7c4.1,2.5,7.3,5.9,9.5,10.2c2.2,4.3,3.2,9.2,3.2,14.6c0,1-0.1,2.3-0.3,3.8h-43
		c0.4,5.2,2.3,9.2,5.6,12c3.3,2.8,7.1,4.2,11.4,4.2c3.4,0,6.4-0.8,9-2.4c2.5-1.6,4.6-3.7,6.1-6.4l10.2,4.8
		c-2.6,4.6-6.1,8.2-10.3,10.9c-4.3,2.6-9.4,4-15.3,4C536.6,718.1,531.6,716.8,527.3,714.3z M556.5,681.7c-0.1-2-0.8-3.9-1.9-5.9
		c-1.1-1.9-2.8-3.6-5-4.9c-2.2-1.3-5-2-8.2-2c-3.9,0-7.2,1.2-9.8,3.5c-2.7,2.3-4.5,5.4-5.6,9.3H556.5z"/>
	<path d="M615.8,714.3c-4.1-2.6-7.4-6.1-9.7-10.6c-2.4-4.5-3.6-9.6-3.6-15.3s1.2-10.8,3.6-15.3c2.4-4.5,5.6-8,9.7-10.6
		c4.1-2.6,8.7-3.8,13.8-3.8c4,0,7.5,0.9,10.7,2.6c3.2,1.8,5.5,3.9,7.1,6.5h0.6l-0.6-7.9v-22.1h12.1v78.8h-11.5v-7.3h-0.6
		c-1.6,2.5-4,4.6-7.1,6.4c-3.2,1.8-6.7,2.6-10.7,2.6C624.4,718.1,619.9,716.8,615.8,714.3z M639.5,704.7c2.5-1.5,4.6-3.7,6.1-6.6
		s2.3-6.1,2.3-9.8c0-3.7-0.8-6.9-2.3-9.7c-1.5-2.8-3.6-5-6.1-6.5c-2.5-1.5-5.3-2.3-8.2-2.3c-2.9,0-5.7,0.8-8.2,2.3
		c-2.6,1.5-4.6,3.7-6.2,6.5c-1.5,2.8-2.3,6.1-2.3,9.7c0,3.7,0.8,6.9,2.3,9.8s3.6,5.1,6.2,6.6c2.6,1.5,5.3,2.3,8.2,2.3
		C634.2,707,636.9,706.2,639.5,704.7z"/>
	<path d="M672.5,649.8c-1.6-1.6-2.4-3.5-2.4-5.8c0-2.3,0.8-4.2,2.4-5.8c1.6-1.6,3.5-2.4,5.8-2.4c2.3,0,4.2,0.8,5.8,2.4
		c1.6,1.6,2.4,3.5,2.4,5.8c0,2.3-0.8,4.2-2.4,5.8c-1.6,1.6-3.5,2.4-5.8,2.4C676,652.1,674.1,651.3,672.5,649.8z M672.2,660.3h12.1
		v56.1h-12.1V660.3z"/>
	<path d="M701.6,713.9c-4.1-2.8-7-6.4-8.7-10.8l10.8-4.7c1.3,2.9,3.2,5.2,5.6,6.7c2.4,1.5,5.1,2.3,8.2,2.3c3,0,5.5-0.5,7.6-1.6
		c2.1-1.1,3.1-2.7,3.1-4.8c0-2.1-0.9-3.7-2.6-4.8c-1.8-1.2-4.5-2.2-8.1-3.1l-6.7-1.7c-4.5-1.1-8.2-3-11.1-5.8
		c-2.9-2.8-4.4-6.3-4.4-10.6c0-3.3,1-6.2,2.9-8.7c1.9-2.5,4.6-4.4,7.9-5.8c3.3-1.4,6.9-2,10.8-2c5.2,0,9.8,1,13.8,3.1
		s6.8,5.1,8.6,9.1l-10.6,4.6c-2.1-4.3-6-6.5-11.7-6.5c-2.7,0-5,0.5-6.8,1.6c-1.8,1.1-2.8,2.5-2.8,4.3c0,1.7,0.7,3.1,2.1,4.1
		c1.4,1.1,3.4,2,6.2,2.7l8.2,2.1c5.5,1.4,9.7,3.5,12.5,6.3c2.8,2.8,4.2,6.3,4.2,10.4c0,3.5-1,6.6-3,9.3c-2,2.7-4.8,4.7-8.3,6.2
		c-3.5,1.5-7.4,2.2-11.7,2.2C710.9,718.1,705.7,716.7,701.6,713.9z"/>
	<path d="M759.6,714.3c-4.4-2.6-7.8-6.1-10.2-10.6c-2.5-4.5-3.7-9.6-3.7-15.2c0-5.4,1.2-10.3,3.6-14.9c2.4-4.6,5.7-8.2,10-10.9
		c4.3-2.7,9.1-4.1,14.5-4.1c5.6,0,10.5,1.2,14.7,3.7c4.1,2.5,7.3,5.9,9.5,10.2c2.2,4.3,3.2,9.2,3.2,14.6c0,1-0.1,2.3-0.3,3.8h-43
		c0.4,5.2,2.3,9.2,5.6,12c3.3,2.8,7.1,4.2,11.4,4.2c3.4,0,6.4-0.8,9-2.4c2.5-1.6,4.6-3.7,6.1-6.4l10.2,4.8
		c-2.6,4.6-6.1,8.2-10.3,10.9c-4.3,2.6-9.4,4-15.3,4C768.9,718.1,763.9,716.8,759.6,714.3z M788.8,681.7c-0.1-2-0.8-3.9-1.9-5.9
		c-1.1-1.9-2.8-3.6-5-4.9c-2.2-1.3-5-2-8.2-2c-3.9,0-7.2,1.2-9.8,3.5c-2.7,2.3-4.5,5.4-5.6,9.3H788.8z"/>
	<path d="M810.4,660.3H822v7.4h0.6c1.6-2.6,4-4.8,7.2-6.5c3.2-1.7,6.6-2.6,10.2-2.6c6.8,0,12,2,15.6,6c3.6,4,5.3,9.4,5.3,16.3v35.5
		h-12.1v-33.9c0-4.4-1.1-7.6-3.2-9.7c-2.2-2.1-5.2-3.1-9-3.1c-2.7,0-5.1,0.8-7.3,2.3c-2.1,1.5-3.8,3.5-5,6c-1.2,2.5-1.8,5.2-1.8,8
		v30.4h-12.1V660.3z"/>

</g>
</svg>
